<mxfile host="Electron" modified="2024-05-04T13:15:42.168Z" agent="Mozilla/5.0 (Windows NT 10.0; Win64; x64) AppleWebKit/537.36 (KHTML, like Gecko) draw.io/24.2.5 Chrome/120.0.6099.109 Electron/28.1.0 Safari/537.36" etag="06WwFM9aR-JT9uurAHkm" version="24.2.5" type="device">
  <diagram name="Page-1" id="0nHyfr_UWhewhHWXK0VR">
    <mxGraphModel dx="1018" dy="693" grid="1" gridSize="10" guides="1" tooltips="1" connect="1" arrows="1" fold="1" page="1" pageScale="1" pageWidth="850" pageHeight="1100" math="0" shadow="0">
      <root>
        <mxCell id="0" />
        <mxCell id="1" parent="0" />
        <mxCell id="nAGlL_EDq4lwVRSG1igY-9" style="edgeStyle=none;rounded=0;orthogonalLoop=1;jettySize=auto;html=1;exitX=1;exitY=0.5;exitDx=0;exitDy=0;entryX=0;entryY=0.5;entryDx=0;entryDy=0;" parent="1" source="nAGlL_EDq4lwVRSG1igY-1" target="6bxFb8dKHkZOc6phP6DZ-2" edge="1">
          <mxGeometry relative="1" as="geometry">
            <mxPoint x="580" y="370" as="targetPoint" />
          </mxGeometry>
        </mxCell>
        <mxCell id="nAGlL_EDq4lwVRSG1igY-1" value="DATA" style="shape=datastore;whiteSpace=wrap;html=1;" parent="1" vertex="1">
          <mxGeometry x="270" y="340" width="70" height="60" as="geometry" />
        </mxCell>
        <mxCell id="nAGlL_EDq4lwVRSG1igY-3" style="edgeStyle=none;rounded=0;orthogonalLoop=1;jettySize=auto;html=1;exitX=1;exitY=0.5;exitDx=0;exitDy=0;entryX=0;entryY=0.5;entryDx=0;entryDy=0;" parent="1" source="nAGlL_EDq4lwVRSG1igY-2" target="nAGlL_EDq4lwVRSG1igY-1" edge="1">
          <mxGeometry relative="1" as="geometry" />
        </mxCell>
        <mxCell id="nAGlL_EDq4lwVRSG1igY-2" value="DAQ" style="shape=process;whiteSpace=wrap;html=1;backgroundOutline=1;fontSize=17;" parent="1" vertex="1">
          <mxGeometry x="80" y="340" width="120" height="60" as="geometry" />
        </mxCell>
        <mxCell id="nAGlL_EDq4lwVRSG1igY-15" style="edgeStyle=orthogonalEdgeStyle;rounded=0;orthogonalLoop=1;jettySize=auto;html=1;exitX=0.5;exitY=1;exitDx=0;exitDy=0;entryX=0;entryY=0.5;entryDx=0;entryDy=0;" parent="1" source="nAGlL_EDq4lwVRSG1igY-11" target="nAGlL_EDq4lwVRSG1igY-14" edge="1">
          <mxGeometry relative="1" as="geometry">
            <mxPoint x="310" y="620" as="sourcePoint" />
          </mxGeometry>
        </mxCell>
        <mxCell id="nAGlL_EDq4lwVRSG1igY-10" style="edgeStyle=none;rounded=0;orthogonalLoop=1;jettySize=auto;html=1;exitX=0.5;exitY=0;exitDx=0;exitDy=0;entryX=0.461;entryY=0.885;entryDx=0;entryDy=0;entryPerimeter=0;" parent="1" source="nAGlL_EDq4lwVRSG1igY-5" target="6bxFb8dKHkZOc6phP6DZ-3" edge="1">
          <mxGeometry relative="1" as="geometry">
            <mxPoint x="460" y="540" as="targetPoint" />
          </mxGeometry>
        </mxCell>
        <mxCell id="nAGlL_EDq4lwVRSG1igY-5" value="GP MODEL" style="shape=datastore;whiteSpace=wrap;html=1;" parent="1" vertex="1">
          <mxGeometry x="463" y="480" width="90" height="60" as="geometry" />
        </mxCell>
        <mxCell id="nAGlL_EDq4lwVRSG1igY-13" style="edgeStyle=orthogonalEdgeStyle;rounded=0;orthogonalLoop=1;jettySize=auto;html=1;exitX=1;exitY=0.5;exitDx=0;exitDy=0;entryX=0;entryY=0.5;entryDx=0;entryDy=0;" parent="1" source="nAGlL_EDq4lwVRSG1igY-11" target="nAGlL_EDq4lwVRSG1igY-5" edge="1">
          <mxGeometry relative="1" as="geometry" />
        </mxCell>
        <mxCell id="nAGlL_EDq4lwVRSG1igY-11" value="GP Update" style="shape=process;whiteSpace=wrap;html=1;backgroundOutline=1;fontSize=17;" parent="1" vertex="1">
          <mxGeometry x="235" y="480" width="140" height="60" as="geometry" />
        </mxCell>
        <mxCell id="nAGlL_EDq4lwVRSG1igY-12" style="edgeStyle=orthogonalEdgeStyle;rounded=0;orthogonalLoop=1;jettySize=auto;html=1;exitX=0.5;exitY=1;exitDx=0;exitDy=0;entryX=0.5;entryY=0;entryDx=0;entryDy=0;jumpStyle=arc;" parent="1" source="nAGlL_EDq4lwVRSG1igY-1" target="nAGlL_EDq4lwVRSG1igY-11" edge="1">
          <mxGeometry relative="1" as="geometry">
            <mxPoint x="310" y="410" as="sourcePoint" />
            <mxPoint x="400" y="505" as="targetPoint" />
          </mxGeometry>
        </mxCell>
        <mxCell id="nAGlL_EDq4lwVRSG1igY-14" value="MEAN ESTIMATES" style="shape=datastore;whiteSpace=wrap;html=1;" parent="1" vertex="1">
          <mxGeometry x="463" y="580" width="90" height="60" as="geometry" />
        </mxCell>
        <mxCell id="6bxFb8dKHkZOc6phP6DZ-1" value="&lt;font style=&quot;font-size: 17px;&quot;&gt;PLOT&lt;/font&gt;" style="swimlane;fontStyle=0;childLayout=stackLayout;horizontal=1;startSize=30;horizontalStack=0;resizeParent=1;resizeParentMax=0;resizeLast=0;collapsible=1;marginBottom=0;whiteSpace=wrap;html=1;" vertex="1" parent="1">
          <mxGeometry x="425" y="325" width="180" height="90" as="geometry" />
        </mxCell>
        <mxCell id="6bxFb8dKHkZOc6phP6DZ-2" value="&lt;div style=&quot;font-size: 14px; line-height: 19px; white-space: pre;&quot;&gt;&lt;font style=&quot;&quot; face=&quot;Courier New&quot;&gt;&lt;b&gt;fetch_and_plot_data&lt;/b&gt;&lt;/font&gt;&lt;/div&gt;" style="text;strokeColor=none;fillColor=none;align=left;verticalAlign=middle;spacingLeft=4;spacingRight=4;overflow=hidden;points=[[0,0.5],[1,0.5]];portConstraint=eastwest;rotatable=0;whiteSpace=wrap;html=1;" vertex="1" parent="6bxFb8dKHkZOc6phP6DZ-1">
          <mxGeometry y="30" width="180" height="30" as="geometry" />
        </mxCell>
        <mxCell id="6bxFb8dKHkZOc6phP6DZ-3" value="&lt;b style=&quot;font-family: &amp;quot;Courier New&amp;quot;; font-size: 14px; white-space: pre;&quot;&gt;GPRegression&lt;/b&gt;" style="text;strokeColor=none;fillColor=none;align=left;verticalAlign=middle;spacingLeft=4;spacingRight=4;overflow=hidden;points=[[0,0.5],[1,0.5]];portConstraint=eastwest;rotatable=0;whiteSpace=wrap;html=1;" vertex="1" parent="6bxFb8dKHkZOc6phP6DZ-1">
          <mxGeometry y="60" width="180" height="30" as="geometry" />
        </mxCell>
        <mxCell id="6bxFb8dKHkZOc6phP6DZ-7" value="" style="edgeStyle=orthogonalEdgeStyle;rounded=0;orthogonalLoop=1;jettySize=auto;html=1;" edge="1" parent="1" source="6bxFb8dKHkZOc6phP6DZ-6" target="nAGlL_EDq4lwVRSG1igY-2">
          <mxGeometry relative="1" as="geometry" />
        </mxCell>
        <mxCell id="6bxFb8dKHkZOc6phP6DZ-6" value="JETBOT SENSOR" style="rounded=0;whiteSpace=wrap;html=1;fontSize=17;fillColor=#e1d5e7;strokeColor=#9673a6;" vertex="1" parent="1">
          <mxGeometry x="80" y="210" width="120" height="60" as="geometry" />
        </mxCell>
      </root>
    </mxGraphModel>
  </diagram>
</mxfile>
